<svg id="logo" width="32" height="32" viewBox="0 0 32 32" fill="none" xmlns="http://www.w3.org/2000/svg">
<rect width="32" height="32" fill="black"/>
<path d="M3.9707 14.7383V23H2.47656V10.6162H4.68262L7.97852 19.2031C8.0957 19.5488 8.20703 19.9209 8.3125 20.3193C8.42383 20.7119 8.49707 20.9961 8.53223 21.1719C8.56738 21.0137 8.62598 20.7969 8.70801 20.5215C8.79004 20.2402 8.87207 19.9707 8.9541 19.7129C9.03613 19.4551 9.09473 19.2852 9.12988 19.2031L12.3643 10.6162H14.5176V23H13.0059V14.7383C13.0059 14.2812 13.0117 13.833 13.0234 13.3936C13.041 12.9541 13.0615 12.5234 13.085 12.1016C12.9385 12.623 12.8008 13.0918 12.6719 13.5078C12.5488 13.918 12.4287 14.2695 12.3115 14.5625L9.1123 23H7.93457L4.69141 14.5625L3.90918 12.1016C3.9209 12.541 3.93262 12.9805 3.94434 13.4199C3.96191 13.8594 3.9707 14.2988 3.9707 14.7383ZM23.1396 21.8135C23.9482 21.8135 24.7012 21.6904 25.3984 21.4443C26.1016 21.1982 26.6699 20.8643 27.1035 20.4424V18.21H23.4033V16.8037H28.6504V21.0752C27.9941 21.7432 27.1885 22.2617 26.2334 22.6309C25.2842 22.9941 24.2529 23.1758 23.1396 23.1758C21.8506 23.1758 20.7402 22.915 19.8086 22.3936C18.877 21.8721 18.1592 21.1309 17.6553 20.1699C17.1514 19.2031 16.8994 18.0635 16.8994 16.751C16.8994 14.7412 17.4385 13.1855 18.5166 12.084C19.5947 10.9824 21.1094 10.4316 23.0605 10.4316C24.4316 10.4316 25.5449 10.6631 26.4004 11.126C27.2559 11.5889 27.915 12.3301 28.3779 13.3496L26.7783 13.8242C26.4268 13.1211 25.9404 12.6084 25.3193 12.2861C24.7041 11.9639 23.9365 11.8027 23.0166 11.8027C21.5869 11.8027 20.4941 12.2363 19.7383 13.1035C18.9824 13.9648 18.6045 15.1807 18.6045 16.751C18.6045 18.3154 19.0059 19.5518 19.8086 20.46C20.6113 21.3623 21.7217 21.8135 23.1396 21.8135Z" fill="white"/>
</svg>
